<svg width="21" height="17" viewBox="0 0 21 17" fill="none" xmlns="http://www.w3.org/2000/svg">
<path d="M18.9042 2.03093L20.5 0.488197V0.150513H14.9717L11.0317 10.0604L6.54917 0.150513H0.7525V0.488197L2.61667 2.75599C2.79833 2.92357 2.89333 3.16862 2.86917 3.41535V12.3274C2.92667 12.6482 2.82333 12.9783 2.6 13.2116L0.5 15.7834V16.1168H6.45417V15.7791L4.35417 13.2116C4.12667 12.9775 4.01917 12.6532 4.065 12.3274V4.61872L9.29167 16.121H9.89917L14.3933 4.61872V13.7817C14.3933 14.0234 14.3933 14.073 14.2367 14.2314L12.62 15.812V16.1505H20.4633V15.8128L18.905 14.2709C18.7683 14.1665 18.6975 13.9914 18.7267 13.8212V2.48062C18.6975 2.30967 18.7675 2.13451 18.9042 2.03093Z" fill="white"/>
</svg>
